<svg version="1.1" id="Layer_1" xmlns="http://www.w3.org/2000/svg" xmlns:xlink="http://www.w3.org/1999/xlink" x="0px" y="0px"
	 width="100%" viewBox="0 0 240 73" enable-background="new 0 0 240 73" xml:space="preserve">
<path fill="#FEFEFE" opacity="1.000000" stroke="none" 
	d="
M96.000000,74.000000 
	C64.386292,74.000000 32.772579,74.000000 1.079436,74.000000 
	C1.079436,49.760529 1.079436,25.520744 1.079436,1.000000 
	C32.020329,1.000000 63.041508,1.000000 94.532463,1.412463 
	C96.583839,5.587389 94.272850,11.091227 100.002182,13.467533 
	C100.003227,21.958883 100.002998,29.981440 99.633018,38.042702 
	C97.808090,39.175041 96.352921,40.268673 94.597031,41.241154 
	C93.459900,40.453548 92.623497,39.787094 92.087883,38.899506 
	C92.496269,36.979679 92.603851,35.280987 92.706543,33.659595 
	C94.031456,32.840714 95.381454,32.006329 97.806702,30.507366 
	C92.156342,30.507366 88.023727,30.507366 83.445038,30.507366 
	C83.314201,31.508829 83.152969,32.743011 82.845551,34.274952 
	C82.905922,36.160198 83.112495,37.747688 83.226006,39.789307 
	C82.895805,43.629650 83.047241,47.142273 78.681992,48.438396 
	C78.192833,48.583641 78.325821,50.824226 77.984970,52.345917 
	C76.536766,53.282272 75.273888,53.965820 74.013901,54.493805 
	C74.016800,54.338238 74.009079,54.025803 74.060478,53.558949 
	C74.137665,48.064072 74.163445,43.036049 74.544937,38.000061 
	C75.862717,37.388882 76.824783,36.785664 77.786850,36.182446 
	C77.491364,35.714264 77.195877,35.246082 76.900391,34.777901 
	C75.796982,35.417152 74.693565,36.056404 73.188034,36.495846 
	C68.205811,36.201187 63.625706,36.106342 58.774990,36.111038 
	C57.993832,36.476517 57.483288,36.742455 56.684525,36.766308 
	C52.124622,36.129642 47.852943,35.735058 43.225273,35.171078 
	C41.852192,35.483532 40.835102,35.965385 39.472519,36.296593 
	C34.846470,35.833214 30.565908,35.520473 26.189110,35.200703 
	C26.189110,41.794907 26.189110,47.519527 26.189110,53.430862 
	C28.485594,53.430862 30.488270,53.430862 32.868057,53.430862 
	C32.868057,48.940655 32.868057,44.872456 32.868057,41.926941 
	C35.718910,42.270676 38.212078,42.571281 41.207458,42.975628 
	C42.042030,43.159531 42.374382,43.239693 42.662224,43.744171 
	C41.164062,50.989552 41.856678,52.552299 47.067078,54.400753 
	C49.002190,56.754116 50.350075,56.618793 51.458023,53.810364 
	C53.693832,53.555511 55.519077,53.289791 57.615707,53.019920 
	C58.251217,53.010994 58.615337,53.006222 59.064987,53.136753 
	C59.150513,53.272060 59.151928,53.592197 59.131901,53.924015 
	C59.461678,54.689335 59.811481,55.122837 60.161289,55.556343 
	C60.440624,55.029716 60.719963,54.503090 61.383232,53.914513 
	C63.060829,53.834682 64.354500,53.816803 65.963120,54.004974 
	C67.958954,57.738251 70.229179,60.364212 74.987625,59.723061 
	C76.819916,60.709503 78.321854,61.663101 79.446747,62.793274 
	C76.823448,68.679184 82.591125,67.256416 84.677734,70.366158 
	C84.878906,68.411362 84.960258,67.620857 85.363800,66.920471 
	C86.789703,68.055923 87.893410,69.101250 89.063797,70.475723 
	C89.881668,71.046333 90.632874,71.287781 91.384071,71.529236 
	C91.152107,70.638626 90.920143,69.748016 90.779015,68.518967 
	C91.892342,67.080772 92.914825,65.981018 94.155327,65.163155 
	C99.314903,64.938873 96.215561,62.374737 95.699699,60.218170 
	C96.060326,59.610767 96.370720,59.244144 97.092323,58.910343 
	C102.688850,58.628380 107.870804,58.209534 113.060875,58.041672 
	C115.751076,57.954666 117.153641,56.965271 117.457420,54.112453 
	C121.630997,53.373295 125.355721,52.702663 129.329056,52.037140 
	C129.909271,52.051277 130.240936,52.057449 130.724731,52.446342 
	C132.861359,53.223480 134.845901,53.615040 136.845703,54.009609 
	C137.241028,48.989765 137.558151,44.963150 138.133255,40.963226 
	C138.563965,40.998257 138.736664,41.006592 139.026825,41.364609 
	C140.428970,42.224808 141.713669,42.735321 142.920883,43.573273 
	C141.891632,44.660587 140.939896,45.420460 140.291260,45.938335 
	C141.791748,48.789890 143.340820,51.211426 144.376114,53.835659 
	C145.623459,56.997379 147.493256,58.671124 150.931778,58.376373 
	C149.320450,59.499882 147.840744,60.666092 146.221634,60.911076 
	C142.326599,61.500427 138.345352,61.503128 134.437714,62.030373 
	C129.874542,62.646065 125.365631,64.052391 121.237495,60.404774 
	C120.679802,59.912006 118.065269,60.612965 117.482147,61.483738 
	C115.224686,64.854813 112.936440,64.273956 109.868172,62.677753 
	C105.972435,60.651081 101.926758,61.953533 100.497345,65.011772 
	C99.079269,68.045731 97.505493,71.006905 96.000000,74.000000 
M20.040596,48.353348 
	C20.040596,44.413143 20.040596,40.472939 20.040596,36.532734 
	C20.488804,36.749111 20.937012,36.965488 21.385220,37.181866 
	C22.527987,35.808628 23.670753,34.435390 24.813519,33.062153 
	C23.232651,32.157761 21.727201,30.696087 20.054575,30.469723 
	C16.961596,30.051138 13.761741,30.507305 10.622874,30.321251 
	C6.705820,30.089071 5.466472,31.664114 6.783967,35.728985 
	C11.412678,34.984329 11.079692,38.176285 11.018200,41.303555 
	C10.938360,45.363865 10.998698,49.426937 10.998698,54.884628 
	C14.674748,52.282948 20.612347,57.196804 20.040596,48.353348 
z"/>
<path fill="#FEFFFF" opacity="1.000000" stroke="none" 
	d="
M96.468658,74.000000 
	C97.505493,71.006905 99.079269,68.045731 100.497345,65.011772 
	C101.926758,61.953533 105.972435,60.651081 109.868172,62.677753 
	C112.936440,64.273956 115.224686,64.854813 117.482147,61.483738 
	C118.065269,60.612965 120.679802,59.912006 121.237495,60.404774 
	C125.365631,64.052391 129.874542,62.646065 134.437714,62.030373 
	C138.345352,61.503128 142.326599,61.500427 146.221634,60.911076 
	C147.840744,60.666092 149.320450,59.499882 151.319366,58.421982 
	C154.351868,58.607105 157.262527,60.155445 159.444199,59.449837 
	C166.721436,57.096195 173.034180,59.265602 179.456085,62.131744 
	C180.492645,62.594379 181.948990,62.474918 183.119919,62.214172 
	C187.508072,61.236992 191.810471,59.506790 196.234085,59.143482 
	C202.761230,58.607414 209.377304,59.213989 215.925339,58.825462 
	C217.346329,58.741146 219.511520,56.699390 219.842453,55.224548 
	C221.368332,48.424099 215.357071,44.725010 212.711700,39.617386 
	C212.466537,39.144047 211.193665,39.010658 210.409149,39.038181 
	C200.483704,39.386383 190.560318,39.793118 180.301788,40.215439 
	C179.081345,40.361446 178.195526,40.476929 177.140900,40.230644 
	C176.210434,39.282177 175.391891,38.755142 174.699890,38.095375 
	C173.537170,36.986832 172.454941,35.793865 171.338852,34.636417 
	C172.635391,33.762405 173.882263,32.223248 175.236511,32.122139 
	C184.147705,31.456812 193.080734,30.780949 202.009262,30.743917 
	C209.467590,30.712982 216.925842,31.627960 224.391129,31.972111 
	C229.403702,32.203190 234.746796,30.832836 238.615051,35.635941 
	C238.987106,36.097900 240.185318,35.894516 241.000000,36.000000 
	C241.000000,48.636318 241.000000,61.272633 241.000000,74.000000 
	C192.979141,74.000000 144.958237,74.000000 96.468658,74.000000 
z"/>
<path fill="#FDFDFD" opacity="1.000000" stroke="none" 
	d="
M241.000000,35.562500 
	C240.185318,35.894516 238.987106,36.097900 238.615051,35.635941 
	C234.746796,30.832836 229.403702,32.203190 224.391129,31.972111 
	C216.925842,31.627960 209.467590,30.712982 202.009262,30.743917 
	C193.080734,30.780949 184.147705,31.456812 175.236511,32.122139 
	C173.882263,32.223248 172.635391,33.762405 171.338852,34.636417 
	C172.454941,35.793865 173.537170,36.986832 174.699890,38.095375 
	C175.391891,38.755142 176.210434,39.282177 177.091919,40.574821 
	C176.921692,41.832417 176.697479,42.814968 176.331696,42.870846 
	C171.144623,43.663250 172.086182,47.616093 172.312744,50.918713 
	C172.596802,55.059414 176.037430,53.613594 178.420349,53.910450 
	C179.231522,54.011505 180.064423,53.938126 181.267273,54.002129 
	C183.885376,53.979362 186.123627,53.898918 188.766998,53.849918 
	C191.339844,53.849495 193.507538,53.817627 196.047577,53.963074 
	C198.734848,54.015396 201.049759,53.890404 203.764206,53.826557 
	C206.319122,53.862400 208.474533,53.837097 211.045609,53.898212 
	C213.125763,54.105545 214.797760,54.327473 216.444031,54.204506 
	C216.625778,54.190929 217.023026,51.416603 216.700745,51.268196 
	C215.226379,50.589272 213.531219,50.389843 211.854858,49.600834 
	C210.934601,47.201817 210.523361,44.053703 209.110489,43.510448 
	C206.963486,42.684895 203.450699,41.953758 202.066772,45.949070 
	C200.500229,46.654980 199.240143,47.330360 197.765915,47.703785 
	C196.191422,46.000839 195.059387,43.813347 193.429672,43.340240 
	C187.571793,41.639706 187.600677,46.052013 186.972961,49.941471 
	C184.891708,49.957886 183.169571,49.948349 181.364426,49.498970 
	C181.066422,46.101055 180.851410,43.142982 180.636383,40.184910 
	C190.560318,39.793118 200.483704,39.386383 210.409149,39.038181 
	C211.193665,39.010658 212.466537,39.144047 212.711700,39.617386 
	C215.357071,44.725010 221.368332,48.424099 219.842453,55.224548 
	C219.511520,56.699390 217.346329,58.741146 215.925339,58.825462 
	C209.377304,59.213989 202.761230,58.607414 196.234085,59.143482 
	C191.810471,59.506790 187.508072,61.236992 183.119919,62.214172 
	C181.948990,62.474918 180.492645,62.594379 179.456085,62.131744 
	C173.034180,59.265602 166.721436,57.096195 159.444199,59.449837 
	C157.262527,60.155445 154.351868,58.607105 151.387589,58.045761 
	C147.493256,58.671124 145.623459,56.997379 144.376114,53.835659 
	C143.340820,51.211426 141.791748,48.789890 140.291260,45.938335 
	C140.939896,45.420460 141.891632,44.660587 143.244171,43.486946 
	C144.414932,42.715736 145.184891,42.358299 146.180786,42.000061 
	C146.406738,41.999260 146.858261,41.998463 146.921997,42.435745 
	C147.006332,44.518570 146.888641,46.179935 147.074829,47.806522 
	C147.538391,51.856667 149.090851,54.817734 154.211334,54.231895 
	C155.973969,54.310936 157.507996,54.110035 159.482605,53.918312 
	C161.529266,53.843853 163.135361,53.760220 165.191330,53.653156 
	C165.191330,47.510090 165.191330,41.736362 165.434204,35.689465 
	C165.469009,33.013943 165.260971,30.611589 165.280426,28.166035 
	C165.507950,28.122831 165.958344,28.014786 166.291580,28.106579 
	C167.073975,28.292788 167.523148,28.387203 168.055969,28.773705 
	C169.411209,29.056664 170.682770,29.047535 172.261551,28.986313 
	C173.342804,28.646761 174.116837,28.359303 175.274017,28.151161 
	C176.436371,28.285986 177.215591,28.341494 178.231018,28.601318 
	C179.630096,28.497829 180.792969,28.190023 182.086090,28.171036 
	C183.148117,28.623688 184.079895,28.787518 185.282135,28.971489 
	C186.034012,28.815859 186.515442,28.640089 187.393311,28.385025 
	C188.856445,28.213631 189.923141,28.121532 191.048431,28.213873 
	C191.416702,28.358910 191.726364,28.319506 192.438660,28.267702 
	C193.915512,28.240179 194.989700,28.225054 196.325562,28.479294 
	C199.064285,28.637276 201.541367,28.525890 204.481812,28.365919 
	C209.984161,28.220907 215.023148,28.124481 220.296051,28.044065 
	C220.529968,28.060076 220.992523,27.982538 221.354248,27.984028 
	C222.437866,28.005531 223.159760,28.025545 224.348251,28.102057 
	C228.805969,28.050035 232.797058,27.941517 236.874054,28.159891 
	C238.306625,28.657856 239.653305,28.828928 241.000000,29.000000 
	C241.000000,31.041666 241.000000,33.083332 241.000000,35.562500 
z"/>
<path fill="#FBFBFB" opacity="1.000000" stroke="none" 
	d="
M100.000000,0.999999 
	C100.750000,1.000000 101.500000,1.000000 102.785988,1.245564 
	C104.547981,1.327419 105.773994,1.163710 107.000000,1.000000 
	C138.687561,1.000000 170.375122,1.000000 202.620346,1.166787 
	C203.452011,1.222382 203.725998,1.111190 204.000000,0.999999 
	C204.000000,1.000000 204.500000,1.000000 204.779205,1.336252 
	C203.976288,2.884579 202.894135,4.096653 201.199142,5.995160 
	C201.170609,6.531212 201.080475,8.224990 200.830750,10.030343 
	C200.671173,10.141917 200.281754,10.146444 199.904144,10.095146 
	C199.018906,10.019021 198.511292,9.994194 197.742035,9.694475 
	C194.990631,9.609167 192.500839,9.798750 189.751740,9.968801 
	C189.319321,9.940120 189.146194,9.930970 188.711456,9.654185 
	C186.304779,9.599166 184.159714,9.811781 182.081619,10.263511 
	C182.284882,10.875076 182.548859,11.029936 182.945190,10.958198 
	C182.949829,10.949190 182.912415,10.929934 182.777969,11.239139 
	C182.561111,11.988585 182.478699,12.428826 182.150299,12.923344 
	C181.316467,13.296895 180.728592,13.616171 180.083313,13.590853 
	C179.271362,12.505587 178.516800,11.764916 177.626556,10.668933 
	C170.714310,10.233088 163.937744,10.152555 156.726746,10.051847 
	C155.424789,10.075980 154.557281,10.120289 153.256760,10.150095 
	C149.879059,10.031068 146.934372,9.926543 143.886978,9.676893 
	C143.522903,9.662921 143.261551,9.794073 142.706177,10.080944 
	C141.347275,11.081360 140.282410,11.926058 139.373703,12.646873 
	C137.861420,11.668186 136.425674,10.739030 134.900543,9.665084 
	C134.545258,9.608105 134.279343,9.695916 133.645615,9.903933 
	C132.517395,10.082138 131.756989,10.140139 130.943130,10.002703 
	C130.593521,9.856103 130.297394,9.904943 129.659668,9.985906 
	C128.877914,10.119824 128.437759,10.221619 127.680115,10.257631 
	C126.935158,10.238739 126.507690,10.285627 125.756378,10.211626 
	C124.972382,10.107265 124.512222,10.123794 123.913376,9.797540 
	C122.528160,7.273674 121.281631,5.092590 120.662689,4.009598 
	C113.707855,4.009598 107.854691,4.009598 101.826874,3.747182 
	C101.101486,2.656510 100.550743,1.828254 100.000000,0.999999 
z"/>
<path fill="#F6EFED" opacity="1.000000" stroke="none" 
	d="
M241.000000,28.531727 
	C239.653305,28.828928 238.306625,28.657856 236.841736,28.179695 
	C236.723526,27.872608 236.692017,27.803581 237.047089,27.690144 
	C238.622040,25.300669 240.951889,22.934772 236.459290,21.057785 
	C233.905640,21.636805 231.769531,22.245447 229.339081,22.937952 
	C229.339081,20.909203 229.339081,18.103310 229.339081,15.783587 
	C232.031403,16.302916 234.655930,16.809168 237.578842,17.372974 
	C237.957199,13.552658 238.388794,10.771663 233.930359,10.907559 
	C230.952560,10.998323 227.967239,10.842810 225.060516,10.459270 
	C226.446487,7.910886 227.757202,5.700742 229.734299,2.366949 
	C231.636368,3.754053 233.623367,5.277787 235.688919,6.686328 
	C237.411469,7.860981 239.226135,8.900585 241.000000,9.999998 
	C241.000000,16.021152 241.000000,22.042303 241.000000,28.531727 
z"/>
<path fill="#FBFBFB" opacity="1.000000" stroke="none" 
	d="
M241.000000,9.508950 
	C239.226135,8.900585 237.411469,7.860981 235.688919,6.686328 
	C233.623367,5.277787 231.636368,3.754053 229.734299,2.366949 
	C227.757202,5.700742 226.446487,7.910886 224.808136,10.521921 
	C224.311630,10.883627 224.142746,10.844441 223.704636,10.567593 
	C222.239578,10.202930 221.043732,10.075933 219.912842,9.707905 
	C219.977768,9.466874 220.139465,8.994534 220.338135,8.856101 
	C220.782486,8.475663 220.898849,8.182333 220.894287,7.887158 
	C220.902710,7.936639 220.804031,7.918207 221.101593,7.776875 
	C221.139038,6.832491 220.878906,6.029438 220.693298,5.224688 
	C220.767822,5.222990 220.679581,5.343139 220.768860,4.957739 
	C220.179398,3.824940 219.206345,2.325651 218.871414,2.456735 
	C217.174133,3.121036 215.642548,4.208674 214.081970,5.118203 
	C214.111053,5.088462 214.149200,5.162387 213.866486,5.102232 
	C213.391449,5.030135 213.199127,5.018191 212.665802,4.973056 
	C210.487122,4.242112 207.709091,4.337924 209.000000,1.000000 
	C215.021149,1.000000 221.042297,1.000000 227.621033,1.165762 
	C228.452408,1.221015 228.726196,1.110506 229.000000,0.999998 
	C232.905930,1.000000 236.811874,1.000000 241.000000,1.000000 
	C241.000000,3.669138 241.000000,6.343521 241.000000,9.508950 
z"/>
<path fill="#F6EFED" opacity="1.000000" stroke="none" 
	d="
M208.600006,1.000000 
	C207.709091,4.337924 210.487122,4.242112 212.659180,5.330780 
	C213.283646,6.806305 213.573730,7.890914 213.950256,9.192218 
	C214.036682,9.408912 214.060684,9.874888 214.028259,10.088951 
	C213.995850,10.303015 213.977997,10.734229 213.743469,10.809267 
	C213.508942,10.884304 213.033447,11.012478 212.722763,11.004210 
	C211.997726,10.991800 211.583389,10.987659 210.926056,10.697855 
	C208.186646,8.479264 205.723969,6.485359 202.867279,9.976263 
	C202.625748,10.271423 201.633713,9.952442 200.990326,9.918770 
	C201.080475,8.224990 201.170609,6.531212 201.199142,5.995160 
	C202.894135,4.096653 203.976288,2.884579 205.029205,1.336252 
	C206.066666,1.000000 207.133347,1.000000 208.600006,1.000000 
z"/>
<path fill="#FBFBFB" opacity="1.000000" stroke="none" 
	d="
M100.000916,12.998741 
	C94.272850,11.091227 96.583839,5.587389 95.001122,1.412463 
	C95.750000,1.000000 96.500000,1.000000 97.627655,1.349711 
	C98.674210,2.801121 99.343102,3.902819 100.008759,5.448135 
	C100.003983,8.260749 100.002449,10.629745 100.000916,12.998741 
z"/>
<path fill="#F9F9F9" opacity="1.000000" stroke="none" 
	d="
M100.012001,5.004517 
	C99.343102,3.902819 98.674210,2.801121 98.002655,1.349711 
	C98.444443,1.000000 98.888893,1.000000 99.666672,0.999999 
	C100.550743,1.828254 101.101486,2.656510 101.659203,3.989333 
	C101.114792,4.664105 100.563393,4.834310 100.012001,5.004517 
z"/>
<path fill="#F5F0EF" opacity="1.000000" stroke="none" 
	d="
M106.600006,1.000000 
	C105.773994,1.163710 104.547981,1.327419 103.160988,1.245564 
	C104.066673,1.000000 105.133339,1.000000 106.600006,1.000000 
z"/>
<path fill="#F6EFED" opacity="1.000000" stroke="none" 
	d="
M228.750000,0.999998 
	C228.726196,1.110506 228.452408,1.221015 228.089294,1.165762 
	C228.000000,1.000000 228.500000,1.000000 228.750000,0.999998 
z"/>
<path fill="#F6EFED" opacity="1.000000" stroke="none" 
	d="
M203.750000,0.999999 
	C203.725998,1.111190 203.452011,1.222382 203.089005,1.166787 
	C203.000000,1.000000 203.500000,1.000000 203.750000,0.999999 
z"/>
<path fill="#F9F9F9" opacity="1.000000" stroke="none" 
	d="
M117.008568,54.180984 
	C117.153641,56.965271 115.751076,57.954666 113.060875,58.041672 
	C107.870804,58.209534 102.688850,58.628380 97.187012,58.575447 
	C97.303383,56.903522 97.736275,55.599316 98.355057,54.209629 
	C98.540955,54.124146 98.919685,53.967941 99.355240,53.972649 
	C100.657822,53.910576 101.524849,53.843796 102.657578,53.708138 
	C103.275955,53.717945 103.628632,53.796635 104.157860,54.147606 
	C105.228897,54.237534 106.123375,54.055180 107.334579,53.771545 
	C108.710754,53.455177 109.770218,53.240093 111.083038,52.903580 
	C111.237709,52.189293 111.139000,51.596439 110.922607,50.625916 
	C110.676010,49.213928 110.547104,48.179615 110.536079,46.678612 
	C110.566238,40.099300 110.478516,33.986675 110.505402,27.689835 
	C110.620018,27.505625 110.388855,27.138411 110.515068,26.724361 
	C110.560402,25.456804 110.479530,24.603296 110.540894,23.849899 
	C110.683144,23.950010 111.026268,24.007320 111.236656,23.900076 
	C111.640198,23.378477 111.833344,22.964125 112.382782,22.424101 
	C113.485634,22.365414 114.232201,22.432394 115.059525,22.828926 
	C117.495735,25.686153 119.459427,26.680264 119.961044,21.948406 
	C119.966904,21.968407 119.930214,21.942455 120.302490,21.966213 
	C121.668900,22.017147 122.663040,22.044323 123.779068,22.077425 
	C123.900963,22.083351 124.113358,21.963131 124.018509,22.380697 
	C123.820160,24.216942 123.716667,25.635620 123.500046,27.180145 
	C123.559616,27.544600 123.732315,27.783207 124.255310,28.093639 
	C125.078423,28.146891 125.551224,28.128317 126.405159,28.201351 
	C127.562355,28.372156 128.338425,28.451351 129.326904,28.665716 
	C129.984650,28.454700 130.429977,28.108515 130.894012,27.822542 
	C130.912689,27.882757 130.786743,27.876661 130.983978,27.854649 
	C131.279388,27.746899 131.471756,27.600691 131.461426,27.584602 
	C131.330017,27.379894 131.169525,27.193863 130.909286,26.583904 
	C130.863174,24.443716 130.924194,22.722704 131.262024,20.771692 
	C131.695969,19.355118 131.853088,18.168545 132.383728,17.148895 
	C134.751221,17.717945 136.745209,18.120075 139.044205,18.583715 
	C139.044205,20.658228 139.044205,22.770336 139.107391,25.113640 
	C139.321747,25.643505 139.551956,25.856985 139.985641,26.161495 
	C140.110107,26.337715 140.132416,26.768625 139.964874,27.044968 
	C139.341644,27.977007 138.885956,28.632704 138.041611,29.847662 
	C139.935059,29.431881 141.020615,29.193504 142.332947,28.965115 
	C142.559708,28.975098 142.995850,28.849098 143.429138,28.920666 
	C146.594040,28.716156 149.325653,28.440079 152.372894,28.104649 
	C153.112778,27.995979 153.537018,27.946659 154.067749,28.171604 
	C154.449875,28.964224 154.725555,29.482576 154.802032,30.079063 
	C154.344360,30.299992 154.152847,30.505266 153.640213,30.807297 
	C151.643814,30.841572 150.035507,30.841572 148.947708,30.841572 
	C147.835953,33.301838 146.940308,35.283855 145.622574,37.183548 
	C140.419739,36.727634 135.638977,36.354042 130.666153,36.118935 
	C130.511856,36.805920 130.549622,37.354424 130.638519,38.166946 
	C130.664169,38.608440 130.638718,38.785908 130.358841,38.970467 
	C129.764633,38.982044 129.424850,38.986530 128.981094,38.607559 
	C128.669250,37.776115 128.482758,36.949360 128.250336,36.936241 
	C123.891052,36.690201 119.411774,35.949989 115.238091,36.759445 
	C114.103210,36.979549 113.797722,41.916588 113.287628,44.720795 
	C113.053513,46.007854 113.345627,47.381706 113.222733,48.699753 
	C112.949730,51.627708 114.059059,53.518913 117.008568,54.180984 
z"/>
<path fill="#969594" opacity="1.000000" stroke="none" 
	d="
M98.169167,54.295113 
	C97.736275,55.599316 97.303383,56.903522 96.775803,58.542625 
	C96.370720,59.244144 96.060326,59.610767 95.444427,60.463432 
	C94.738388,62.260075 94.337845,63.570667 93.937302,64.881264 
	C92.914825,65.981018 91.892342,67.080772 90.560951,68.678299 
	C89.833740,69.499573 89.415428,69.823074 88.997116,70.146576 
	C87.893410,69.101250 86.789703,68.055923 85.210464,66.643677 
	C83.097878,65.056740 81.460838,63.836723 79.823792,62.616703 
	C78.321854,61.663101 76.819916,60.709503 74.865479,59.416698 
	C73.362450,57.684654 70.793419,56.429665 74.011009,54.649368 
	C75.273888,53.965820 76.536766,53.282272 78.319626,52.278816 
	C80.591797,50.726189 82.519440,49.679096 84.060257,48.222733 
	C87.439842,45.028381 87.144325,42.468395 83.319061,39.335178 
	C83.112495,37.747688 82.905922,36.160198 83.214890,34.258720 
	C84.467484,33.890339 85.204559,33.835941 85.954071,34.106300 
	C85.967850,34.647720 85.969177,34.864380 85.676208,35.090660 
	C85.593086,36.076138 85.804276,37.051991 86.006989,38.014668 
	C85.998528,38.001488 85.972542,37.983986 86.107849,38.286842 
	C87.167839,39.065392 88.092537,39.541084 89.009270,40.007118 
	C89.001312,39.997467 88.984886,39.978603 88.953552,40.328949 
	C89.620712,41.123966 90.319214,41.568638 91.009903,42.005615 
	C91.002090,41.997921 90.987801,41.981308 90.917519,42.379551 
	C91.119858,45.384373 91.392479,47.990952 91.387985,50.726982 
	C90.501007,51.597363 89.891144,52.338291 89.281288,53.079220 
	C89.590889,53.325104 89.900497,53.570988 90.210098,53.816875 
	C90.875999,52.944141 91.541901,52.071407 92.394806,51.144543 
	C92.581802,51.090408 92.956764,50.985504 93.246407,51.185555 
	C95.080421,52.355442 96.624794,53.325275 98.169167,54.295113 
M82.554192,59.970467 
	C82.503883,59.729465 82.453575,59.488464 82.403275,59.247459 
	C82.173286,59.402786 81.943298,59.558109 81.276512,59.989613 
	C81.270638,60.211781 81.264763,60.433945 81.258888,60.656109 
	C81.557495,60.493176 81.856110,60.330242 82.554192,59.970467 
z"/>
<path fill="#999998" opacity="1.000000" stroke="none" 
	d="
M117.457420,54.112453 
	C114.059059,53.518913 112.949730,51.627708 113.222733,48.699753 
	C113.345627,47.381706 113.053513,46.007854 113.287628,44.720795 
	C113.797722,41.916588 114.103210,36.979549 115.238091,36.759445 
	C119.411774,35.949989 123.891052,36.690201 128.250336,36.936241 
	C128.482758,36.949360 128.669250,37.776115 128.925812,39.069016 
	C129.009827,43.953297 129.045135,47.992664 129.080444,52.032036 
	C125.355721,52.702663 121.630997,53.373295 117.457420,54.112453 
z"/>
<path fill="#989896" opacity="1.000000" stroke="none" 
	d="
M20.040768,48.827568 
	C20.612347,57.196804 14.674748,52.282948 10.998698,54.884628 
	C10.998698,49.426937 10.938360,45.363865 11.018200,41.303555 
	C11.079692,38.176285 11.412678,34.984329 6.783967,35.728985 
	C5.466472,31.664114 6.705820,30.089071 10.622874,30.321251 
	C13.761741,30.507305 16.961596,30.051138 20.054575,30.469723 
	C21.727201,30.696087 23.232651,32.157761 24.813519,33.062153 
	C23.670753,34.435390 22.527987,35.808628 21.385220,37.181866 
	C20.937012,36.965488 20.488804,36.749111 20.040596,36.532734 
	C20.040596,40.472939 20.040596,44.413143 20.040768,48.827568 
z"/>
<path fill="#999999" opacity="1.000000" stroke="none" 
	d="
M57.344318,53.024067 
	C55.519077,53.289791 53.693832,53.555511 51.246540,53.586117 
	C49.415970,53.585274 48.207455,53.819542 46.998936,54.053814 
	C41.856678,52.552299 41.164062,50.989552 42.991600,43.679028 
	C44.760990,42.872971 46.156487,42.556366 47.551987,42.239761 
	C47.494774,41.940357 47.437557,41.640953 47.380344,41.341549 
	C45.697235,41.079311 44.014126,40.817078 41.684601,40.454132 
	C42.407528,38.505020 42.994396,36.922749 43.581264,35.340473 
	C47.852943,35.735058 52.124622,36.129642 56.709534,37.232040 
	C57.129951,42.967926 57.237137,47.995998 57.344318,53.024067 
z"/>
<path fill="#959594" opacity="1.000000" stroke="none" 
	d="
M74.189224,38.008026 
	C74.163445,43.036049 74.137665,48.064072 73.628784,53.479061 
	C71.557640,53.750290 69.969582,53.634556 67.569626,53.459648 
	C67.569626,49.168102 67.569626,45.136791 67.568047,40.832024 
	C67.069611,40.714233 66.572754,40.869900 66.021210,41.483391 
	C65.860405,45.893787 65.754288,49.846352 65.648178,53.798920 
	C64.354500,53.816803 63.060829,53.834682 61.079155,53.833168 
	C59.978077,53.739918 59.565002,53.666058 59.151928,53.592197 
	C59.151928,53.592197 59.150513,53.272060 59.111446,52.670849 
	C59.063454,46.716923 59.054527,41.364212 59.045601,36.011497 
	C63.625706,36.106342 68.205811,36.201187 73.247681,36.727562 
	C73.812874,37.473965 73.972794,37.756943 74.189224,38.008026 
z"/>
<path fill="#F5F0EF" opacity="1.000000" stroke="none" 
	d="
M102.391869,53.777016 
	C101.524849,53.843796 100.657822,53.910576 99.361130,53.538582 
	C98.926216,50.793182 98.920982,48.486561 99.080246,45.798489 
	C99.497414,42.946026 99.750092,40.475014 100.002769,38.003998 
	C100.002998,29.981440 100.003227,21.958883 100.002182,13.467533 
	C100.002449,10.629745 100.003983,8.260749 100.008759,5.448134 
	C100.563393,4.834310 101.114792,4.664105 101.833855,4.251749 
	C107.854691,4.009598 113.707855,4.009598 120.662689,4.009598 
	C121.281631,5.092590 122.528160,7.273674 123.859894,10.247477 
	C123.849136,14.717297 123.753159,18.394398 123.657181,22.071499 
	C122.663040,22.044323 121.668900,22.017147 120.414551,21.558594 
	C120.448906,16.896582 120.931595,12.663855 120.884514,8.437031 
	C120.874710,7.557065 118.939117,6.004791 117.831238,5.948956 
	C112.579910,5.684302 107.307869,5.830748 101.734474,5.830748 
	C101.734474,19.042973 101.689774,31.483572 101.764572,43.923454 
	C101.784325,47.209114 102.172737,50.492554 102.391869,53.777016 
z"/>
<path fill="#9A9A9A" opacity="1.000000" stroke="none" 
	d="
M40.705246,42.871887 
	C38.212078,42.571281 35.718910,42.270676 32.868057,41.926941 
	C32.868057,44.872456 32.868057,48.940655 32.868057,53.430862 
	C30.488270,53.430862 28.485594,53.430862 26.189110,53.430862 
	C26.189110,47.519527 26.189110,41.794907 26.189110,35.200703 
	C30.565908,35.520473 34.846470,35.833214 39.567307,36.635220 
	C40.240131,39.040287 40.472687,40.956089 40.705246,42.871887 
z"/>
<path fill="#969695" opacity="1.000000" stroke="none" 
	d="
M130.858246,35.980453 
	C135.638977,36.354042 140.419739,36.727634 145.604080,37.457565 
	C145.998199,38.182686 145.988708,38.551476 145.918350,39.302803 
	C145.889938,40.457184 145.922394,41.229023 145.954849,42.000862 
	C145.184891,42.358299 144.414932,42.715736 143.321686,43.159504 
	C141.713669,42.735321 140.428970,42.224808 138.995316,41.133133 
	C138.522675,40.680164 138.198959,40.808350 137.875259,40.936535 
	C137.558151,44.963150 137.241028,48.989765 136.845703,54.009609 
	C134.845901,53.615040 132.861359,53.223480 130.839569,51.989532 
	C130.739319,47.085892 130.676285,43.024632 130.613266,38.963375 
	C130.638718,38.785908 130.664169,38.608440 130.736267,37.856441 
	C130.807999,36.848091 130.833115,36.414272 130.858246,35.980453 
z"/>
<path fill="#969595" opacity="1.000000" stroke="none" 
	d="
M98.915756,46.179932 
	C98.920982,48.486561 98.926216,50.793182 98.925568,53.533875 
	C98.919685,53.967941 98.540955,54.124146 98.355057,54.209625 
	C96.624794,53.325275 95.080421,52.355442 93.319427,50.818214 
	C94.568733,46.939087 94.129097,44.114712 90.987801,41.981308 
	C90.987801,41.981308 91.002090,41.997921 90.913704,41.720795 
	C90.211838,40.955311 89.598366,40.466957 88.984886,39.978603 
	C88.984886,39.978603 89.001312,39.997467 89.003204,39.731602 
	C89.016510,39.282360 89.027924,39.098988 89.367081,38.760490 
	C90.392242,38.777130 91.089668,38.948887 91.787086,39.120640 
	C92.623497,39.787094 93.459900,40.453548 94.762169,41.498497 
	C96.457268,43.311306 97.686508,44.745621 98.915756,46.179932 
z"/>
<path fill="#F9F9F9" opacity="1.000000" stroke="none" 
	d="
M92.087883,38.899506 
	C91.089668,38.948887 90.392242,38.777130 89.349533,38.780754 
	C89.004242,38.956131 89.050743,38.983009 89.119583,38.646961 
	C88.799515,38.190598 88.410599,38.070282 88.028687,37.975174 
	C88.035690,38.000385 88.074623,37.963577 88.186203,37.592186 
	C87.128860,36.337124 89.670547,32.911404 85.941628,33.781540 
	C85.204559,33.835941 84.467484,33.890339 83.361076,33.960968 
	C83.152969,32.743011 83.314201,31.508829 83.445038,30.507366 
	C88.023727,30.507366 92.156342,30.507366 97.806702,30.507366 
	C95.381454,32.006329 94.031456,32.840714 92.706543,33.659595 
	C92.603851,35.280987 92.496269,36.979679 92.087883,38.899506 
z"/>
<path fill="#F9F9F9" opacity="1.000000" stroke="none" 
	d="
M65.963120,54.004974 
	C65.754288,49.846352 65.860405,45.893787 66.271011,41.486374 
	C66.907089,41.053402 67.238464,41.078053 67.569626,41.105480 
	C67.569626,45.136791 67.569626,49.168102 67.569626,53.459648 
	C69.969582,53.634556 71.557640,53.750290 73.577393,53.945915 
	C74.009079,54.025803 74.016800,54.338238 74.013901,54.493805 
	C70.793419,56.429665 73.362450,57.684654 74.535126,59.383854 
	C70.229179,60.364212 67.958954,57.738251 65.963120,54.004974 
z"/>
<path fill="#F9F9F9" opacity="1.000000" stroke="none" 
	d="
M83.225998,39.789307 
	C87.144325,42.468395 87.439842,45.028381 84.060257,48.222733 
	C82.519440,49.679096 80.591797,50.726189 78.504944,52.026016 
	C78.325821,50.824226 78.192833,48.583641 78.681992,48.438396 
	C83.047241,47.142273 82.895805,43.629650 83.225998,39.789307 
z"/>
<path fill="#F9F9F9" opacity="1.000000" stroke="none" 
	d="
M58.774990,36.111038 
	C59.054527,41.364212 59.063454,46.716923 59.025917,52.535542 
	C58.615337,53.006222 58.251217,53.010994 57.615707,53.019920 
	C57.237137,47.995998 57.129951,42.967926 56.997757,37.474125 
	C57.483288,36.742455 57.993832,36.476517 58.774990,36.111038 
z"/>
<path fill="#F9F9F9" opacity="1.000000" stroke="none" 
	d="
M79.446747,62.793274 
	C81.460838,63.836723 83.097878,65.056740 84.888268,66.553558 
	C84.960258,67.620857 84.878906,68.411362 84.677734,70.366158 
	C82.591125,67.256416 76.823448,68.679184 79.446747,62.793274 
z"/>
<path fill="#F9F9F9" opacity="1.000000" stroke="none" 
	d="
M99.080246,45.798485 
	C97.686508,44.745621 96.457268,43.311306 95.062881,41.619648 
	C96.352921,40.268673 97.808090,39.175041 99.633018,38.042702 
	C99.750092,40.475014 99.497414,42.946026 99.080246,45.798485 
z"/>
<path fill="#F5F0EF" opacity="1.000000" stroke="none" 
	d="
M130.358841,38.970467 
	C130.676285,43.024632 130.739319,47.085892 130.687500,51.603958 
	C130.240936,52.057449 129.909271,52.051277 129.329041,52.037140 
	C129.045135,47.992664 129.009827,43.953297 129.029785,39.452469 
	C129.424850,38.986530 129.764633,38.982044 130.358841,38.970467 
z"/>
<path fill="#F9F9F9" opacity="1.000000" stroke="none" 
	d="
M41.207462,42.975628 
	C40.472687,40.956089 40.240131,39.040287 39.912792,36.785866 
	C40.835102,35.965385 41.852192,35.483532 43.225273,35.171078 
	C42.994396,36.922749 42.407528,38.505020 41.684601,40.454132 
	C44.014126,40.817078 45.697235,41.079311 47.380344,41.341549 
	C47.437557,41.640953 47.494774,41.940357 47.551987,42.239761 
	C46.156487,42.556366 44.760990,42.872971 43.036110,43.254715 
	C42.374382,43.239693 42.042030,43.159531 41.207462,42.975628 
z"/>
<path fill="#F9F9F9" opacity="1.000000" stroke="none" 
	d="
M94.155319,65.163155 
	C94.337845,63.570667 94.738388,62.260075 95.394196,60.704216 
	C96.215561,62.374737 99.314903,64.938873 94.155319,65.163155 
z"/>
<path fill="#F9F9F9" opacity="1.000000" stroke="none" 
	d="
M74.544937,38.000061 
	C73.972794,37.756943 73.812874,37.473965 73.649796,36.927376 
	C74.693565,36.056404 75.796982,35.417152 76.900391,34.777901 
	C77.195877,35.246082 77.491364,35.714264 77.786850,36.182446 
	C76.824783,36.785664 75.862717,37.388882 74.544937,38.000061 
z"/>
<path fill="#F9F9F9" opacity="1.000000" stroke="none" 
	d="
M47.067078,54.400753 
	C48.207455,53.819542 49.415970,53.585274 50.835976,53.575249 
	C50.350075,56.618793 49.002190,56.754116 47.067078,54.400753 
z"/>
<path fill="#F9F9F9" opacity="1.000000" stroke="none" 
	d="
M89.063797,70.475723 
	C89.415428,69.823074 89.833740,69.499573 90.470108,69.016739 
	C90.920143,69.748016 91.152107,70.638626 91.384071,71.529236 
	C90.632874,71.287781 89.881668,71.046333 89.063797,70.475723 
z"/>
<path fill="#F9F9F9" opacity="1.000000" stroke="none" 
	d="
M59.131901,53.924015 
	C59.565002,53.666058 59.978077,53.739918 60.695229,53.895119 
	C60.719963,54.503090 60.440624,55.029716 60.161289,55.556343 
	C59.811481,55.122837 59.461678,54.689335 59.131901,53.924015 
z"/>
<path fill="#F5F0EF" opacity="1.000000" stroke="none" 
	d="
M138.133255,40.963226 
	C138.198959,40.808350 138.522675,40.680164 138.877869,40.783447 
	C138.736664,41.006592 138.563965,40.998257 138.133255,40.963226 
z"/>
<path fill="#9A9A9A" opacity="1.000000" stroke="none" 
	d="
M180.301788,40.215439 
	C180.851410,43.142982 181.066422,46.101055 181.251343,49.889709 
	C181.109970,51.795013 180.998688,52.869732 180.887405,53.944450 
	C180.064423,53.938126 179.231522,54.011505 178.420349,53.910450 
	C176.037430,53.613594 172.596802,55.059414 172.312744,50.918713 
	C172.086182,47.616093 171.144623,43.663250 176.331696,42.870846 
	C176.697479,42.814968 176.921692,41.832417 177.260712,40.936584 
	C178.195526,40.476929 179.081345,40.361446 180.301788,40.215439 
z"/>
<path fill="#D12A24" opacity="1.000000" stroke="none" 
	d="
M177.762238,11.024248 
	C178.516800,11.764916 179.271362,12.505587 180.011185,14.054876 
	C179.985413,18.116343 180.157272,21.385237 179.873993,24.614199 
	C179.759430,25.920036 178.650970,27.138676 177.994812,28.396999 
	C177.215591,28.341494 176.436371,28.285986 175.319244,27.688368 
	C174.441010,23.035978 176.405304,18.508560 173.688187,14.760821 
	C173.124573,14.794676 172.560974,14.828529 171.997360,14.862384 
	C171.997360,19.248493 171.997360,23.634604 171.595215,28.086523 
	C170.119476,28.262094 169.045883,28.371857 167.972305,28.481617 
	C167.523148,28.387203 167.073975,28.292788 166.288361,27.640778 
	C165.951904,22.969143 165.951904,18.855099 165.951904,14.741056 
	C165.089432,14.727122 164.226959,14.713187 163.364487,14.699253 
	C163.196136,19.105629 163.027802,23.512005 162.550903,28.073565 
	C161.168930,28.435627 160.095520,28.642506 159.004425,28.507418 
	C158.450409,27.096685 157.914047,26.027918 157.295593,24.641956 
	C157.268631,23.894794 157.323776,23.464823 157.708511,23.017555 
	C158.343704,20.668348 159.007675,18.315567 158.873322,16.009291 
	C158.656281,12.283727 159.610687,10.621628 163.763458,10.975808 
	C168.397385,11.371025 173.093307,11.039476 177.762238,11.024248 
z"/>
<path fill="#CC332C" opacity="1.000000" stroke="none" 
	d="
M200.830750,10.030344 
	C201.633713,9.952442 202.625748,10.271423 202.867279,9.976263 
	C205.723969,6.485359 208.186646,8.479264 210.881500,11.111364 
	C210.018021,15.842924 208.956100,19.875311 207.830673,24.148897 
	C208.858047,24.400225 209.927368,24.661810 211.063065,25.302052 
	C213.657608,28.192890 214.878403,27.098848 214.956787,24.102358 
	C215.072968,19.659073 214.926788,15.208928 214.885269,10.579468 
	C214.878250,10.397231 214.892715,10.032776 215.312805,10.014951 
	C216.853851,10.007424 217.974823,10.017724 219.175186,10.348805 
	C219.561737,11.457221 219.868896,12.244855 220.090302,13.005072 
	C220.004562,12.977656 219.826584,12.950456 219.414337,12.962966 
	C218.000061,13.908203 216.313873,14.725314 216.132797,15.796780 
	C215.704208,18.332911 216.142258,21.001209 215.948212,23.594999 
	C215.721268,26.628338 217.364197,27.220814 219.899353,26.995752 
	C219.965530,26.944908 220.131561,26.962076 220.082214,27.226488 
	C220.042618,27.669954 220.052383,27.849007 220.062134,28.028057 
	C215.023148,28.124481 209.984161,28.220907 204.071991,28.236736 
	C198.630417,28.612112 199.870010,25.558033 200.354218,22.816023 
	C201.711136,19.883511 202.851669,17.226231 203.954102,14.657681 
	C202.283157,13.963396 201.106674,13.474569 199.969162,12.733024 
	C199.942856,12.322820 199.877609,12.165336 199.890228,11.697162 
	C200.072647,10.973130 200.177200,10.559788 200.281754,10.146445 
	C200.281754,10.146444 200.671173,10.141917 200.830750,10.030344 
z"/>
<path fill="#CE2A23" opacity="1.000000" stroke="none" 
	d="
M223.973877,10.805258 
	C224.142746,10.844441 224.311630,10.883627 224.732910,10.860161 
	C227.967239,10.842810 230.952560,10.998323 233.930359,10.907559 
	C238.388794,10.771663 237.957199,13.552658 237.578842,17.372974 
	C234.655930,16.809168 232.031403,16.302916 229.339081,15.783587 
	C229.339081,18.103310 229.339081,20.909203 229.339081,22.937952 
	C231.769531,22.245447 233.905640,21.636805 236.522980,21.475470 
	C236.900146,23.883045 236.796082,25.843313 236.692017,27.803581 
	C236.692017,27.803581 236.723526,27.872608 236.755844,27.852802 
	C232.797058,27.941517 228.805969,28.050035 224.251984,27.694143 
	C223.412170,22.477512 223.135269,17.725290 222.918259,12.646875 
	C223.310059,11.815541 223.641968,11.310401 223.973877,10.805258 
z"/>
<path fill="#CE281F" opacity="1.000000" stroke="none" 
	d="
M182.396286,12.869068 
	C182.478699,12.428826 182.561111,11.988585 183.215546,11.262239 
	C185.528732,10.972276 187.269882,10.968416 189.056015,11.428809 
	C189.706314,15.874729 187.822983,20.291985 191.236282,25.273005 
	C191.990982,19.574492 192.554520,15.319397 193.464050,11.024439 
	C194.866623,11.334714 195.923187,11.684852 197.005905,12.401459 
	C197.074326,13.500381 197.116592,14.232831 197.077499,15.306717 
	C197.048447,16.110100 197.100784,16.572048 197.102417,17.425217 
	C197.090073,18.865747 197.128433,19.915058 197.086609,21.370407 
	C196.692245,23.920942 196.378082,26.065437 196.063904,28.209930 
	C194.989700,28.225054 193.915512,28.240179 192.201843,28.101845 
	C191.371536,27.975401 191.180679,28.002417 190.989838,28.029432 
	C189.923141,28.121532 188.856445,28.213631 187.082092,28.226250 
	C185.911652,28.112190 185.448853,28.077614 184.775787,27.849648 
	C184.050980,27.095327 183.536469,26.534397 183.021255,25.509836 
	C182.812485,20.987162 182.604385,16.928116 182.396286,12.869068 
z"/>
<path fill="#979797" opacity="1.000000" stroke="none" 
	d="
M145.979218,38.920258 
	C145.988708,38.551476 145.998199,38.182686 146.026169,37.539886 
	C146.940308,35.283855 147.835953,33.301838 148.947708,30.841572 
	C150.035507,30.841572 151.643814,30.841572 153.827454,30.960825 
	C154.402771,31.080078 154.845322,31.275801 154.837738,31.652637 
	C155.580597,33.293236 156.331039,34.556992 157.123016,36.236019 
	C157.130280,37.483860 157.096008,38.316429 156.652969,39.206146 
	C154.283768,42.988331 153.251816,46.665615 156.883453,50.468094 
	C155.970871,51.869961 154.976807,52.910954 153.982742,53.951942 
	C149.090851,54.817734 147.538391,51.856667 147.074829,47.806522 
	C146.888641,46.179935 147.006332,44.518570 146.985870,42.085838 
	C146.650436,40.505852 146.314835,39.713055 145.979218,38.920258 
z"/>
<path fill="#F5F0EF" opacity="1.000000" stroke="none" 
	d="
M157.061737,39.149002 
	C157.096008,38.316429 157.130280,37.483860 157.268463,35.901886 
	C158.017410,32.773106 159.338348,30.082447 154.999390,29.999386 
	C155.000000,30.000000 155.001221,30.000931 155.001221,30.000931 
	C154.725555,29.482576 154.449875,28.964224 154.080551,27.961544 
	C153.986893,27.477217 154.068695,27.064434 154.036789,27.034346 
	C154.004883,27.004257 154.065536,27.061558 154.406982,26.851320 
	C155.116287,24.151972 156.364456,21.332190 152.460754,20.568911 
	C156.553467,18.395615 155.197067,15.037343 154.440125,11.818933 
	C154.416519,11.811802 154.451340,11.774336 154.437531,11.465136 
	C154.179077,10.825488 153.934433,10.495041 153.689789,10.164596 
	C154.557281,10.120289 155.424789,10.075980 156.690796,10.509527 
	C157.185822,15.003207 157.282364,19.019030 157.378906,23.034853 
	C157.323776,23.464823 157.268631,23.894794 157.182343,24.979763 
	C157.774826,26.706301 158.398468,27.777840 159.022095,28.849380 
	C160.095520,28.642506 161.168930,28.435627 162.919006,28.101263 
	C164.081406,28.052265 164.567169,28.130751 165.052917,28.209236 
	C165.260971,30.611589 165.469009,33.013943 164.984756,35.668873 
	C161.152100,35.584381 158.355362,35.729252 158.300140,40.005058 
	C157.737946,39.700520 157.399841,39.424763 157.061737,39.149002 
z"/>
<path fill="#939393" opacity="1.000000" stroke="none" 
	d="
M158.524231,40.033840 
	C158.355362,35.729252 161.152100,35.584381 164.741882,35.942043 
	C165.191330,41.736362 165.191330,47.510090 165.191330,53.653156 
	C163.135361,53.760220 161.529266,53.843853 159.438721,53.521000 
	C158.817017,52.063183 158.679779,51.011856 158.637848,49.518188 
	C158.663513,46.061852 158.593872,43.047844 158.524231,40.033840 
z"/>
<path fill="#989898" opacity="1.000000" stroke="none" 
	d="
M187.332047,49.915520 
	C187.600677,46.052013 187.571793,41.639706 193.429672,43.340240 
	C195.059387,43.813347 196.191422,46.000839 197.695679,48.043484 
	C197.118134,50.385349 196.396683,52.085556 195.675247,53.785763 
	C193.507538,53.817627 191.339844,53.849495 188.639740,53.466633 
	C187.848923,52.006443 187.590485,50.960979 187.332047,49.915520 
z"/>
<path fill="#999999" opacity="1.000000" stroke="none" 
	d="
M210.629929,53.811798 
	C208.474533,53.837097 206.319122,53.862400 203.628601,53.413803 
	C202.853378,50.599449 202.613297,48.258999 202.373215,45.918545 
	C203.450699,41.953758 206.963486,42.684895 209.110489,43.510448 
	C210.523361,44.053703 210.934601,47.201817 211.793213,49.929478 
	C211.404678,51.720913 211.017303,52.766357 210.629929,53.811798 
z"/>
<path fill="#F5F0EF" opacity="1.000000" stroke="none" 
	d="
M202.066772,45.949070 
	C202.613297,48.258999 202.853378,50.599449 203.229065,53.352657 
	C201.049759,53.890404 198.734848,54.015396 196.047577,53.963074 
	C196.396683,52.085556 197.118134,50.385349 197.909805,48.345444 
	C199.240143,47.330360 200.500229,46.654980 202.066772,45.949070 
z"/>
<path fill="#FAD5D2" opacity="1.000000" stroke="none" 
	d="
M222.858368,12.973071 
	C223.135269,17.725290 223.412170,22.477512 223.785370,27.637646 
	C223.159760,28.025545 222.437866,28.005531 221.258926,27.777252 
	C220.631546,27.308039 220.408112,27.105734 220.131561,26.962076 
	C220.131561,26.962076 219.965530,26.944908 219.953125,26.618214 
	C219.908844,25.531946 219.876999,24.772377 219.910583,23.677162 
	C219.928284,22.890541 219.880554,22.439564 219.887787,21.540363 
	C219.904022,18.378246 219.865311,15.664351 219.826584,12.950456 
	C219.826584,12.950456 220.004562,12.977656 220.425674,13.000445 
	C221.517303,13.006514 222.187836,12.989792 222.858368,12.973071 
z"/>
<path fill="#F2CAC7" opacity="1.000000" stroke="none" 
	d="
M182.150299,12.923344 
	C182.604385,16.928116 182.812485,20.987162 182.766632,25.657299 
	C182.327072,26.806335 182.141464,27.344278 181.955841,27.882219 
	C180.792969,28.190023 179.630096,28.497829 178.231018,28.601316 
	C178.650970,27.138676 179.759430,25.920036 179.873993,24.614199 
	C180.157272,21.385237 179.985413,18.116343 180.068604,14.399471 
	C180.728592,13.616171 181.316467,13.296895 182.150299,12.923344 
z"/>
<path fill="#F1C6C2" opacity="1.000000" stroke="none" 
	d="
M171.997360,28.020714 
	C171.997360,23.634604 171.997360,19.248493 171.997360,14.862384 
	C172.560974,14.828529 173.124573,14.794676 173.688187,14.760821 
	C176.405304,18.508560 174.441010,23.035978 174.936111,27.609051 
	C174.116837,28.359303 173.342804,28.646761 172.256073,28.730984 
	C171.961395,28.358740 171.979370,28.189726 171.997360,28.020714 
z"/>
<path fill="#F4C9C5" opacity="1.000000" stroke="none" 
	d="
M165.280426,28.166035 
	C164.567169,28.130751 164.081406,28.052265 163.227554,27.946079 
	C163.027802,23.512005 163.196136,19.105629 163.364487,14.699253 
	C164.226959,14.713187 165.089432,14.727122 165.951904,14.741056 
	C165.951904,18.855099 165.951904,22.969143 165.955124,27.548985 
	C165.958344,28.014786 165.507950,28.122831 165.280426,28.166035 
z"/>
<path fill="#F5F0EF" opacity="1.000000" stroke="none" 
	d="
M186.972961,49.941471 
	C187.590485,50.960979 187.848923,52.006443 188.234619,53.435188 
	C186.123627,53.898918 183.885376,53.979362 181.267273,54.002129 
	C180.998688,52.869732 181.109970,51.795013 181.334335,50.329552 
	C183.169571,49.948349 184.891708,49.957886 186.972961,49.941471 
z"/>
<path fill="#F4C6C5" opacity="1.000000" stroke="none" 
	d="
M196.325562,28.479294 
	C196.378082,26.065437 196.692245,23.920942 197.395401,21.435886 
	C198.568863,21.760637 199.353348,22.425947 200.137817,23.091255 
	C199.870010,25.558033 198.630417,28.612112 203.608612,28.285320 
	C201.541367,28.525890 199.064285,28.637276 196.325562,28.479294 
z"/>
<path fill="#F5F0EF" opacity="1.000000" stroke="none" 
	d="
M211.045609,53.898216 
	C211.017303,52.766357 211.404678,51.720913 211.853699,50.346825 
	C213.531219,50.389843 215.226379,50.589272 216.700745,51.268196 
	C217.023026,51.416603 216.625778,54.190929 216.444031,54.204506 
	C214.797760,54.327473 213.125763,54.105545 211.045609,53.898216 
z"/>
<path fill="#F5F0EF" opacity="1.000000" stroke="none" 
	d="
M158.542526,49.960526 
	C158.679779,51.011856 158.817017,52.063183 158.998138,53.511826 
	C157.507996,54.110035 155.973969,54.310936 154.211334,54.231892 
	C154.976807,52.910954 155.970871,51.869961 157.173264,50.425606 
	C157.768570,50.001675 158.155548,49.981098 158.542526,49.960526 
z"/>
<path fill="#F5F0EF" opacity="1.000000" stroke="none" 
	d="
M182.086090,28.171040 
	C182.141464,27.344278 182.327072,26.806335 182.767303,26.120930 
	C183.536469,26.534397 184.050980,27.095327 184.779984,28.076767 
	C184.994461,28.497276 185.011658,28.951349 185.011658,28.951349 
	C184.079895,28.787518 183.148117,28.623688 182.086090,28.171040 
z"/>
<path fill="#F5F0EF" opacity="1.000000" stroke="none" 
	d="
M171.595215,28.086523 
	C171.979370,28.189726 171.961395,28.358740 171.948883,28.783079 
	C170.682770,29.047535 169.411209,29.056664 168.055969,28.773706 
	C169.045883,28.371857 170.119476,28.262094 171.595215,28.086523 
z"/>
<path fill="#FEFFFF" opacity="1.000000" stroke="none" 
	d="
M145.918365,39.302803 
	C146.314835,39.713055 146.650436,40.505852 146.922150,41.648552 
	C146.858261,41.998463 146.406738,41.999260 146.180786,42.000061 
	C145.922394,41.229023 145.889938,40.457184 145.918365,39.302803 
z"/>
<path fill="#F4C6C5" opacity="1.000000" stroke="none" 
	d="
M185.282135,28.971489 
	C185.011658,28.951349 184.994461,28.497276 184.990265,28.270157 
	C185.448853,28.077614 185.911652,28.112190 186.685654,28.305542 
	C186.515442,28.640089 186.034012,28.815859 185.282135,28.971489 
z"/>
<path fill="#F4C6C5" opacity="1.000000" stroke="none" 
	d="
M191.048431,28.213873 
	C191.180679,28.002417 191.371536,27.975401 191.799194,28.114243 
	C191.726364,28.319506 191.416702,28.358910 191.048431,28.213873 
z"/>
<path fill="#F4C6C5" opacity="1.000000" stroke="none" 
	d="
M220.082214,27.226488 
	C220.408112,27.105734 220.631546,27.308039 220.897186,27.775764 
	C220.992523,27.982538 220.529968,28.060076 220.296051,28.044067 
	C220.052383,27.849007 220.042618,27.669954 220.082214,27.226488 
z"/>
<path fill="#CA423E" opacity="1.000000" stroke="none" 
	d="
M153.256760,10.150093 
	C153.934433,10.495041 154.179077,10.825488 154.032013,11.403126 
	C150.885178,11.767138 148.123795,12.057167 145.376450,11.958017 
	C141.741669,11.826841 141.371506,14.137565 141.447250,16.796101 
	C141.553909,20.538752 141.794647,24.277582 141.722412,27.901472 
	C141.021988,27.446142 140.577194,27.107384 140.132416,26.768625 
	C140.132416,26.768625 140.110107,26.337715 139.982758,25.906048 
	C139.585022,25.277069 139.314606,25.079756 139.044205,24.882442 
	C139.044205,22.770336 139.044205,20.658228 139.044205,18.583715 
	C136.745209,18.120075 134.751221,17.717945 132.338120,16.814220 
	C131.594437,15.795408 131.269882,15.278191 130.969543,14.467806 
	C129.995056,12.890899 128.996338,11.607157 127.997604,10.323414 
	C128.437759,10.221619 128.877914,10.119824 129.885101,10.142347 
	C130.633621,10.243824 130.815109,10.220982 130.996597,10.198140 
	C131.756989,10.140139 132.517395,10.082138 133.888092,9.971446 
	C134.662262,9.882463 134.826096,9.846169 134.989914,9.809875 
	C136.425674,10.739030 137.861420,11.668186 139.373703,12.646873 
	C140.282410,11.926058 141.347275,11.081360 142.960281,10.119545 
	C143.668839,9.942292 143.829269,9.882155 143.989700,9.822020 
	C146.934372,9.926543 149.879059,10.031068 153.256760,10.150093 
z"/>
<path fill="#F8E8E7" opacity="1.000000" stroke="none" 
	d="
M200.354218,22.816025 
	C199.353348,22.425947 198.568863,21.760637 197.475601,21.029846 
	C197.128433,19.915058 197.090073,18.865747 197.378357,17.367565 
	C197.522964,16.267557 197.340912,15.616421 197.158875,14.965284 
	C197.116592,14.232831 197.074326,13.500381 197.113770,12.133705 
	C197.464890,10.989443 197.734283,10.479406 198.003677,9.969368 
	C198.511292,9.994194 199.018906,10.019021 199.904144,10.095148 
	C200.177200,10.559788 200.072647,10.973130 199.741974,11.798330 
	C199.653976,12.468708 199.792099,12.727227 199.930206,12.985744 
	C201.106674,13.474569 202.283157,13.963396 203.954102,14.657681 
	C202.851669,17.226231 201.711136,19.883511 200.354218,22.816025 
z"/>
<path fill="#C3443C" opacity="1.000000" stroke="none" 
	d="
M157.708496,23.017555 
	C157.282364,19.019030 157.185822,15.003207 157.125244,10.529703 
	C163.937744,10.152555 170.714310,10.233088 177.626556,10.668936 
	C173.093307,11.039476 168.397385,11.371025 163.763458,10.975808 
	C159.610687,10.621628 158.656281,12.283727 158.873322,16.009291 
	C159.007675,18.315567 158.343704,20.668348 157.708496,23.017555 
z"/>
<path fill="#FACCC4" opacity="1.000000" stroke="none" 
	d="
M193.118057,11.064303 
	C192.554520,15.319397 191.990982,19.574492 191.236282,25.273005 
	C187.822983,20.291985 189.706314,15.874729 189.041656,11.168293 
	C188.979233,10.269624 188.976151,10.095721 188.973068,9.921820 
	C189.146194,9.930970 189.319321,9.940120 189.962265,10.243574 
	C191.327423,10.713354 192.222733,10.888829 193.118057,11.064303 
z"/>
<path fill="#D71F15" opacity="1.000000" stroke="none" 
	d="
M127.680115,10.257633 
	C128.996338,11.607157 129.995056,12.890899 130.980255,14.537520 
	C130.966736,14.900401 130.826248,14.910647 130.620712,14.876474 
	C130.415176,14.842301 130.001068,14.795564 129.723694,14.745991 
	C128.963028,16.815834 128.479767,18.935251 127.652695,21.046118 
	C126.849525,21.051601 126.390152,21.065636 125.935333,20.650146 
	C125.986671,16.924589 126.033447,13.628552 126.080223,10.332517 
	C126.507690,10.285627 126.935158,10.238739 127.680115,10.257633 
z"/>
<path fill="#CA423E" opacity="1.000000" stroke="none" 
	d="
M125.756378,10.211626 
	C126.033447,13.628552 125.986671,16.924589 125.784813,20.870338 
	C125.124275,21.667747 124.618813,21.815439 124.113358,21.963131 
	C124.113358,21.963131 123.900963,22.083351 123.779076,22.077425 
	C123.753159,18.394398 123.849136,14.717297 123.998596,10.590259 
	C124.512222,10.123794 124.972382,10.107265 125.756378,10.211626 
z"/>
<path fill="#F6EFED" opacity="1.000000" stroke="none" 
	d="
M193.464050,11.024441 
	C192.222733,10.888829 191.327423,10.713354 190.221588,10.263107 
	C192.500839,9.798750 194.990631,9.609167 197.742035,9.694476 
	C197.734283,10.479406 197.464890,10.989443 197.087631,11.767235 
	C195.923187,11.684852 194.866623,11.334714 193.464050,11.024441 
z"/>
<path fill="#F6EFED" opacity="1.000000" stroke="none" 
	d="
M188.711456,9.654185 
	C188.976151,10.095721 188.979233,10.269624 188.996674,10.704041 
	C187.269882,10.968416 185.528732,10.972276 183.350006,10.953035 
	C182.912415,10.929934 182.949829,10.949190 182.869873,10.735376 
	C182.599136,10.250384 182.340714,10.084663 182.014648,10.024397 
	C184.159714,9.811781 186.304779,9.599166 188.711456,9.654185 
z"/>
<path fill="#F5F0EF" opacity="1.000000" stroke="none" 
	d="
M130.943130,10.002703 
	C130.815109,10.220982 130.633621,10.243824 130.226685,10.110224 
	C130.297394,9.904943 130.593521,9.856103 130.943130,10.002703 
z"/>
<path fill="#F5F0EF" opacity="1.000000" stroke="none" 
	d="
M134.900543,9.665085 
	C134.826096,9.846169 134.662262,9.882463 134.255920,9.851241 
	C134.279343,9.695916 134.545258,9.608105 134.900543,9.665085 
z"/>
<path fill="#F5F0EF" opacity="1.000000" stroke="none" 
	d="
M143.886978,9.676893 
	C143.829269,9.882155 143.668839,9.942292 143.254303,9.963827 
	C143.261551,9.794073 143.522903,9.662921 143.886978,9.676893 
z"/>
<path fill="#F2CAC7" opacity="1.000000" stroke="none" 
	d="
M182.081619,10.263512 
	C182.340714,10.084663 182.599136,10.250384 182.865234,10.744383 
	C182.548859,11.029936 182.284882,10.875076 182.081619,10.263512 
z"/>
<path fill="#FAD5D2" opacity="1.000000" stroke="none" 
	d="
M237.047089,27.690144 
	C236.796082,25.843313 236.900146,23.883045 236.940521,21.505093 
	C240.951889,22.934772 238.622040,25.300669 237.047089,27.690144 
z"/>
<path fill="#C74943" opacity="1.000000" stroke="none" 
	d="
M219.095795,10.028024 
	C217.974823,10.017724 216.853851,10.007424 215.105347,9.972910 
	C214.477814,9.948695 214.060684,9.874888 214.060684,9.874888 
	C214.060684,9.874888 214.036682,9.408912 213.980759,8.808372 
	C213.999634,7.192684 214.074417,6.177536 214.149200,5.162387 
	C214.149200,5.162387 214.111053,5.088462 214.502716,5.108648 
	C216.822784,5.200269 218.751190,5.271704 220.679581,5.343139 
	C220.679581,5.343139 220.767822,5.222990 220.712952,5.561237 
	C220.706741,6.572392 220.755386,7.245300 220.804031,7.918207 
	C220.804031,7.918207 220.902710,7.936639 220.645569,7.982301 
	C220.305435,8.350154 220.222458,8.672345 220.139465,8.994534 
	C220.139465,8.994534 219.977768,9.466874 219.724075,9.720762 
	C219.470383,9.974649 219.095795,10.028024 219.095795,10.028024 
z"/>
<path fill="#F6EFED" opacity="1.000000" stroke="none" 
	d="
M220.768860,4.957739 
	C218.751190,5.271704 216.822784,5.200269 214.473633,5.138389 
	C215.642548,4.208674 217.174133,3.121036 218.871414,2.456735 
	C219.206345,2.325651 220.179398,3.824940 220.768860,4.957739 
z"/>
<path fill="#F6EFED" opacity="1.000000" stroke="none" 
	d="
M219.175186,10.348805 
	C219.095795,10.028024 219.470383,9.974649 219.659149,9.961792 
	C221.043732,10.075933 222.239578,10.202930 223.704651,10.567595 
	C223.641968,11.310401 223.310059,11.815541 222.918243,12.646875 
	C222.187836,12.989792 221.517303,13.006514 220.511414,13.027861 
	C219.868896,12.244855 219.561737,11.457221 219.175186,10.348805 
z"/>
<path fill="#F7E0DC" opacity="1.000000" stroke="none" 
	d="
M213.866486,5.102232 
	C214.074417,6.177536 213.999634,7.192684 213.894318,8.591678 
	C213.573730,7.890914 213.283646,6.806305 213.000183,5.363972 
	C213.199127,5.018191 213.391449,5.030135 213.866486,5.102232 
z"/>
<path fill="#F6EFED" opacity="1.000000" stroke="none" 
	d="
M221.101593,7.776875 
	C220.755386,7.245300 220.706741,6.572392 220.638428,5.562936 
	C220.878906,6.029438 221.139038,6.832491 221.101593,7.776875 
z"/>
<path fill="#F6EFED" opacity="1.000000" stroke="none" 
	d="
M220.338135,8.856102 
	C220.222458,8.672345 220.305435,8.350154 220.637146,7.932820 
	C220.898849,8.182333 220.782486,8.475663 220.338135,8.856102 
z"/>
<path fill="#F7E0DC" opacity="1.000000" stroke="none" 
	d="
M210.996674,24.923393 
	C209.927368,24.661810 208.858047,24.400225 207.830673,24.148897 
	C208.956100,19.875311 210.018021,15.842924 211.124481,11.397029 
	C211.583389,10.987659 211.997726,10.991800 212.705841,11.467529 
	C213.026550,15.435180 213.190170,18.939323 212.984283,22.421618 
	C212.932831,23.291672 211.691254,24.091360 210.996674,24.923393 
z"/>
<path fill="#BD382E" opacity="1.000000" stroke="none" 
	d="
M211.063065,25.302048 
	C211.691254,24.091360 212.932831,23.291672 212.984283,22.421618 
	C213.190170,18.939323 213.026550,15.435180 213.016541,11.475798 
	C213.033447,11.012478 213.508942,10.884304 213.970062,10.883352 
	C214.431168,10.882401 214.892288,10.761703 214.892288,10.761703 
	C214.926788,15.208928 215.072968,19.659073 214.956787,24.102358 
	C214.878403,27.098848 213.657608,28.192890 211.063065,25.302048 
z"/>
<path fill="#F7E0DC" opacity="1.000000" stroke="none" 
	d="
M214.885269,10.579468 
	C214.892288,10.761703 214.431168,10.882401 214.204590,10.808315 
	C213.977997,10.734229 213.995850,10.303015 214.028259,10.088951 
	C214.060684,9.874888 214.477814,9.948695 214.685272,9.990736 
	C214.892715,10.032776 214.878250,10.397231 214.885269,10.579468 
z"/>
<path fill="#D12B24" opacity="1.000000" stroke="none" 
	d="
M102.657578,53.708138 
	C102.172737,50.492554 101.784325,47.209114 101.764572,43.923454 
	C101.689774,31.483572 101.734474,19.042973 101.734474,5.830748 
	C107.307869,5.830748 112.579910,5.684302 117.831238,5.948956 
	C118.939117,6.004791 120.874710,7.557065 120.884514,8.437031 
	C120.931595,12.663855 120.448906,16.896582 120.042282,21.534836 
	C119.930214,21.942455 119.966904,21.968407 119.543152,21.971474 
	C117.739189,22.149485 116.358978,22.324430 114.978775,22.499376 
	C114.232201,22.432394 113.485634,22.365414 112.095306,22.388597 
	C111.309784,22.988281 111.168022,23.497801 111.026268,24.007320 
	C111.026268,24.007320 110.683144,23.950010 110.245140,23.799454 
	C109.579781,31.421333 109.349983,39.193714 109.178650,46.967384 
	C109.177544,47.017555 109.987160,47.085598 110.418198,47.145298 
	C110.547104,48.179615 110.676010,49.213928 110.815529,50.951607 
	C110.827316,52.111649 110.828499,52.568329 110.829674,53.025013 
	C109.770218,53.240093 108.710754,53.455177 106.962555,53.662621 
	C105.509636,53.728428 104.745476,53.801876 103.981308,53.875320 
	C103.628632,53.796635 103.275955,53.717945 102.657578,53.708138 
M112.409126,16.446871 
	C112.409126,16.446871 112.504425,16.275545 112.839401,15.923512 
	C112.979607,15.599821 112.962051,15.284856 112.881477,14.242638 
	C112.837791,13.504542 112.794113,12.766446 112.828529,11.502790 
	C112.550766,11.343611 112.273010,11.184430 111.245766,11.260025 
	C111.214066,12.828293 111.182365,14.396560 111.076675,16.461945 
	C111.463295,16.487917 111.849915,16.513889 112.409126,16.446871 
z"/>
<path fill="#CD3630" opacity="1.000000" stroke="none" 
	d="
M141.978043,28.018045 
	C141.794647,24.277582 141.553909,20.538752 141.447250,16.796101 
	C141.371506,14.137565 141.741669,11.826841 145.376450,11.958017 
	C148.123795,12.057167 150.885178,11.767138 154.045837,11.712325 
	C154.451340,11.774336 154.416519,11.811802 154.298203,12.246182 
	C154.005341,14.277586 153.830795,15.874608 153.666824,17.374922 
	C145.092911,19.018585 145.092911,19.018585 146.093704,24.157469 
	C148.209106,27.733398 154.544983,15.549820 154.065536,27.061558 
	C154.065536,27.061558 154.004883,27.004257 153.723450,27.043625 
	C152.980438,27.443331 152.518845,27.803665 152.057251,28.164000 
	C149.325653,28.440079 146.594040,28.716156 143.307495,28.728802 
	C142.547379,28.224825 142.289352,28.075762 141.987213,28.009861 
	C141.995972,28.001549 141.978043,28.018045 141.978043,28.018045 
z"/>
<path fill="#B82116" opacity="1.000000" stroke="none" 
	d="
M110.536087,46.678612 
	C109.987160,47.085598 109.177544,47.017555 109.178650,46.967384 
	C109.349983,39.193714 109.579781,31.421333 110.102890,23.699343 
	C110.479530,24.603296 110.560402,25.456804 110.429138,26.797657 
	C110.120514,27.525248 110.178436,27.721598 110.390785,27.874046 
	C110.478516,33.986675 110.566238,40.099300 110.536087,46.678612 
z"/>
<path fill="#BF2419" opacity="1.000000" stroke="none" 
	d="
M127.996490,21.054668 
	C128.479767,18.935251 128.963028,16.815834 129.736679,14.970467 
	C130.064194,15.560402 130.218231,15.801428 130.569122,16.382862 
	C130.761108,18.199316 130.873154,19.600506 130.985199,21.001694 
	C130.924194,22.722704 130.863174,24.443716 130.783264,26.784248 
	C130.764359,27.403769 130.786743,27.876661 130.786743,27.876661 
	C130.786743,27.876661 130.912689,27.882757 130.682541,27.821947 
	C130.452393,27.761137 130.029053,27.769083 129.777740,27.546692 
	C128.025223,26.906883 126.524025,26.489466 125.071289,25.728279 
	C125.089233,23.283852 130.520782,24.812174 127.996490,21.054668 
z"/>
<path fill="#C73733" opacity="1.000000" stroke="none" 
	d="
M127.652695,21.046118 
	C130.520782,24.812174 125.089233,23.283852 125.195450,25.982523 
	C125.522102,27.090271 125.773064,27.600006 126.024025,28.109741 
	C125.551224,28.128317 125.078423,28.146891 124.228424,27.837883 
	C123.771889,27.358299 123.692535,27.206299 123.613174,27.054298 
	C123.716667,25.635620 123.820160,24.216942 124.018509,22.380699 
	C124.618813,21.815439 125.124275,21.667747 125.780258,21.299862 
	C126.390152,21.065636 126.849525,21.051601 127.652695,21.046118 
z"/>
<path fill="#F5F0EF" opacity="1.000000" stroke="none" 
	d="
M115.059525,22.828926 
	C116.358978,22.324430 117.739189,22.149485 119.537292,21.951471 
	C119.459427,26.680264 117.495735,25.686153 115.059525,22.828926 
z"/>
<path fill="#CA423E" opacity="1.000000" stroke="none" 
	d="
M126.405159,28.201351 
	C125.773064,27.600006 125.522102,27.090271 125.146988,26.326292 
	C126.524025,26.489466 128.025223,26.906883 129.572845,27.765606 
	C129.450989,28.314787 129.282745,28.422667 129.114487,28.530544 
	C128.338425,28.451351 127.562355,28.372156 126.405159,28.201351 
z"/>
<path fill="#F5F0EF" opacity="1.000000" stroke="none" 
	d="
M139.964874,27.044968 
	C140.577194,27.107384 141.021988,27.446142 141.722412,27.901472 
	C141.978043,28.018045 141.995972,28.001549 141.991928,28.247772 
	C141.987885,28.493998 142.106171,28.955130 142.106171,28.955130 
	C141.020615,29.193504 139.935059,29.431881 138.041611,29.847662 
	C138.885956,28.632704 139.341644,27.977007 139.964874,27.044968 
z"/>
<path fill="#F5F0EF" opacity="1.000000" stroke="none" 
	d="
M131.262024,20.771692 
	C130.873154,19.600506 130.761108,18.199316 130.722412,16.140696 
	C130.805923,15.292392 130.816086,15.101520 130.826248,14.910647 
	C130.826248,14.910647 130.966736,14.900401 130.956024,14.830687 
	C131.269882,15.278191 131.594437,15.795408 131.964600,16.647299 
	C131.853088,18.168545 131.695969,19.355118 131.262024,20.771692 
z"/>
<path fill="#F5F0EF" opacity="1.000000" stroke="none" 
	d="
M104.157860,54.147606 
	C104.745476,53.801876 105.509636,53.728428 106.645828,53.763905 
	C106.123375,54.055180 105.228897,54.237534 104.157860,54.147606 
z"/>
<path fill="#CA423E" opacity="1.000000" stroke="none" 
	d="
M152.372894,28.104649 
	C152.518845,27.803665 152.980438,27.443331 153.755371,27.073715 
	C154.068695,27.064434 153.986893,27.477217 153.974091,27.687279 
	C153.537018,27.946659 153.112778,27.995979 152.372894,28.104649 
z"/>
<path fill="#F5F0EF" opacity="1.000000" stroke="none" 
	d="
M111.083038,52.903580 
	C110.828499,52.568329 110.827316,52.111649 110.933220,51.329277 
	C111.139000,51.596439 111.237709,52.189293 111.083038,52.903580 
z"/>
<path fill="#F5F0EF" opacity="1.000000" stroke="none" 
	d="
M111.236656,23.900076 
	C111.168022,23.497801 111.309784,22.988281 111.739021,22.514267 
	C111.833344,22.964125 111.640198,23.378477 111.236656,23.900076 
z"/>
<path fill="#F5F0EF" opacity="1.000000" stroke="none" 
	d="
M129.326904,28.665714 
	C129.282745,28.422667 129.450989,28.314787 129.824158,27.987995 
	C130.029053,27.769083 130.452393,27.761137 130.663849,27.761732 
	C130.429977,28.108515 129.984650,28.454700 129.326904,28.665714 
z"/>
<path fill="#F5F0EF" opacity="1.000000" stroke="none" 
	d="
M130.666168,36.118935 
	C130.833115,36.414272 130.807999,36.848091 130.685135,37.592415 
	C130.549622,37.354424 130.511856,36.805920 130.666168,36.118935 
z"/>
<path fill="#F5F0EF" opacity="1.000000" stroke="none" 
	d="
M154.845322,31.275801 
	C154.845322,31.275801 154.402771,31.080078 154.215546,30.926548 
	C154.152847,30.505266 154.344360,30.299992 154.802032,30.079063 
	C155.001221,30.000931 155.000000,30.000000 154.974579,30.320278 
	C154.914551,30.852306 154.879944,31.064053 154.845322,31.275801 
z"/>
<path fill="#CA423E" opacity="1.000000" stroke="none" 
	d="
M142.332947,28.965115 
	C142.106171,28.955130 141.987885,28.493998 141.983185,28.256086 
	C142.289352,28.075762 142.547379,28.224825 142.874207,28.657232 
	C142.995850,28.849098 142.559708,28.975098 142.332947,28.965115 
z"/>
<path fill="#F5F0EF" opacity="1.000000" stroke="none" 
	d="
M139.107391,25.113638 
	C139.314606,25.079756 139.585022,25.277069 139.858307,25.729828 
	C139.551956,25.856985 139.321747,25.643505 139.107391,25.113638 
z"/>
<path fill="#D12B24" opacity="1.000000" stroke="none" 
	d="
M110.505402,27.689835 
	C110.178436,27.721598 110.120514,27.525248 110.302933,27.211704 
	C110.388855,27.138411 110.620018,27.505625 110.505402,27.689835 
z"/>
<path fill="#F5F0EF" opacity="1.000000" stroke="none" 
	d="
M123.500046,27.180145 
	C123.692535,27.206299 123.771889,27.358299 123.878120,27.766056 
	C123.732315,27.783207 123.559616,27.544600 123.500046,27.180145 
z"/>
<path fill="#F5F0EF" opacity="1.000000" stroke="none" 
	d="
M130.983978,27.854649 
	C130.786743,27.876661 130.764359,27.403769 130.890381,27.203426 
	C131.169525,27.193863 131.330017,27.379894 131.461426,27.584602 
	C131.471756,27.600691 131.279388,27.746899 130.983978,27.854649 
z"/>
<path fill="#D3D2D0" opacity="1.000000" stroke="none" 
	d="
M90.917519,42.379551 
	C94.129097,44.114712 94.568733,46.939087 93.029785,50.618164 
	C92.956764,50.985504 92.581802,51.090408 92.255341,50.997665 
	C91.928886,50.904926 91.665100,50.597530 91.665100,50.597530 
	C91.392479,47.990952 91.119858,45.384373 90.917519,42.379551 
z"/>
<path fill="#969595" opacity="1.000000" stroke="none" 
	d="
M85.954071,34.106300 
	C89.670547,32.911404 87.128860,36.337124 87.834473,37.604229 
	C86.904953,37.986443 86.438744,37.985214 85.972542,37.983986 
	C85.972542,37.983986 85.998528,38.001488 86.046959,37.646797 
	C86.053764,36.555084 86.012131,35.818066 85.970505,35.081043 
	C85.969177,34.864380 85.967850,34.647720 85.954071,34.106300 
z"/>
<path fill="#D3D2D0" opacity="1.000000" stroke="none" 
	d="
M92.068344,51.051804 
	C91.541901,52.071407 90.875999,52.944141 90.210098,53.816875 
	C89.900497,53.570988 89.590889,53.325104 89.281288,53.079220 
	C89.891144,52.338291 90.501007,51.597363 91.387985,50.726982 
	C91.665100,50.597530 91.928886,50.904926 92.068344,51.051804 
z"/>
<path fill="#D3D2D0" opacity="1.000000" stroke="none" 
	d="
M85.676208,35.090660 
	C86.012131,35.818066 86.053764,36.555084 86.055420,37.659977 
	C85.804276,37.051991 85.593086,36.076138 85.676208,35.090660 
z"/>
<path fill="#D3D2D0" opacity="1.000000" stroke="none" 
	d="
M86.107849,38.286842 
	C86.438744,37.985214 86.904953,37.986443 87.722885,37.975624 
	C88.074623,37.963577 88.035690,38.000385 88.092339,38.235233 
	C88.449570,38.641056 88.750160,38.812035 89.050743,38.983009 
	C89.050743,38.983009 89.004242,38.956131 89.021790,38.935871 
	C89.027924,39.098988 89.016510,39.282360 89.011154,39.741257 
	C88.092537,39.541084 87.167839,39.065392 86.107849,38.286842 
z"/>
<path fill="#D3D2D0" opacity="1.000000" stroke="none" 
	d="
M88.953552,40.328949 
	C89.598366,40.466957 90.211838,40.955311 90.921509,41.728485 
	C90.319214,41.568638 89.620712,41.123966 88.953552,40.328949 
z"/>
<path fill="#F9F9F9" opacity="1.000000" stroke="none" 
	d="
M81.713310,59.713432 
	C81.943298,59.558109 82.173286,59.402786 82.403275,59.247459 
	C82.453575,59.488464 82.503883,59.729465 82.244598,59.954948 
	C81.934998,59.939426 81.713310,59.713436 81.713310,59.713432 
z"/>
<path fill="#F9F9F9" opacity="1.000000" stroke="none" 
	d="
M82.044861,60.053368 
	C81.856110,60.330242 81.557495,60.493176 81.258896,60.656113 
	C81.264763,60.433945 81.270638,60.211781 81.494911,59.851524 
	C81.713310,59.713436 81.934998,59.939426 82.044861,60.053368 
z"/>
<path fill="#E6E6E5" opacity="1.000000" stroke="none" 
	d="
M67.568047,40.832024 
	C67.238464,41.078053 66.907089,41.053402 66.325699,41.028545 
	C66.572754,40.869900 67.069611,40.714233 67.568047,40.832024 
z"/>
<path fill="#969595" opacity="1.000000" stroke="none" 
	d="
M89.119583,38.646961 
	C88.750160,38.812035 88.449570,38.641056 88.085342,38.210022 
	C88.410599,38.070282 88.799515,38.190598 89.119583,38.646961 
z"/>
<path fill="#C3443C" opacity="1.000000" stroke="none" 
	d="
M159.004425,28.507416 
	C158.398468,27.777840 157.774826,26.706301 157.264435,25.296955 
	C157.914047,26.027918 158.450409,27.096685 159.004425,28.507416 
z"/>
<path fill="#D42119" opacity="1.000000" stroke="none" 
	d="
M219.845139,24.012806 
	C219.876999,24.772377 219.908844,25.531946 219.886932,26.669056 
	C217.364197,27.220814 215.721268,26.628338 215.948212,23.594999 
	C216.142258,21.001209 215.704208,18.332911 216.132797,15.796780 
	C216.313873,14.725314 218.000061,13.908203 219.414337,12.962966 
	C219.865311,15.664351 219.904022,18.378246 219.609741,21.591049 
	C218.986588,22.409351 218.696442,22.728746 218.406311,23.048145 
	C218.885925,23.369699 219.365524,23.691252 219.845139,24.012806 
z"/>
<path fill="#F4C6C5" opacity="1.000000" stroke="none" 
	d="
M199.969162,12.733025 
	C199.792099,12.727227 199.653976,12.468708 199.664108,12.109020 
	C199.877609,12.165336 199.942856,12.322820 199.969162,12.733025 
z"/>
<path fill="#F4C6C5" opacity="1.000000" stroke="none" 
	d="
M197.077484,15.306719 
	C197.340912,15.616421 197.522964,16.267557 197.429062,16.976345 
	C197.100784,16.572048 197.048447,16.110100 197.077484,15.306719 
z"/>
<path fill="#FEFEFE" opacity="1.000000" stroke="none" 
	d="
M158.637848,49.518188 
	C158.155548,49.981098 157.768570,50.001675 157.091766,50.064732 
	C153.251816,46.665615 154.283768,42.988331 156.652954,39.206146 
	C157.399841,39.424763 157.737946,39.700520 158.300140,40.005058 
	C158.593872,43.047844 158.663513,46.061852 158.637848,49.518188 
z"/>
<path fill="#F9F9F9" opacity="1.000000" stroke="none" 
	d="
M154.837738,31.652637 
	C154.879944,31.064053 154.914551,30.852306 154.973969,30.319664 
	C159.338348,30.082447 158.017410,32.773106 157.226929,35.486618 
	C156.331039,34.556992 155.580597,33.293236 154.837738,31.652637 
z"/>
<path fill="#CA423E" opacity="1.000000" stroke="none" 
	d="
M154.406982,26.851320 
	C154.544983,15.549820 148.209106,27.733398 146.093704,24.157469 
	C145.092911,19.018585 145.092911,19.018585 153.666824,17.374922 
	C153.830795,15.874608 154.005341,14.277586 154.321808,12.253313 
	C155.197067,15.037343 156.553467,18.395615 152.460754,20.568911 
	C156.364456,21.332190 155.116287,24.151972 154.406982,26.851320 
z"/>
<path fill="#CC332C" opacity="1.000000" stroke="none" 
	d="
M219.910583,23.677162 
	C219.365524,23.691252 218.885925,23.369699 218.406311,23.048145 
	C218.696442,22.728746 218.986588,22.409351 219.554779,22.039272 
	C219.880554,22.439564 219.928284,22.890541 219.910583,23.677162 
z"/>
<path fill="#CA423E" opacity="1.000000" stroke="none" 
	d="
M130.620712,14.876474 
	C130.816086,15.101520 130.805923,15.292392 130.642487,15.725430 
	C130.218231,15.801428 130.064194,15.560402 130.014069,15.020040 
	C130.001068,14.795564 130.415176,14.842301 130.620712,14.876474 
z"/>
<path fill="#FCEEE9" opacity="1.000000" stroke="none" 
	d="
M111.150665,15.964828 
	C111.182365,14.396560 111.214066,12.828293 111.676514,11.355680 
	C112.244896,11.729215 112.459282,11.921553 112.750427,12.028351 
	C112.794113,12.766446 112.837791,13.504542 112.655632,14.788248 
	C112.454666,15.647755 112.479546,15.961650 112.504425,16.275545 
	C112.504425,16.275545 112.409126,16.446871 112.074249,16.304604 
	C111.543129,16.096502 111.346893,16.030664 111.150665,15.964828 
z"/>
<path fill="#FDC8C1" opacity="1.000000" stroke="none" 
	d="
M112.671906,16.099529 
	C112.479546,15.961650 112.454666,15.647755 112.608261,15.156238 
	C112.962051,15.284856 112.979607,15.599821 112.671906,16.099529 
z"/>
<path fill="#FDC8C1" opacity="1.000000" stroke="none" 
	d="
M112.789474,11.765571 
	C112.459282,11.921553 112.244896,11.729215 112.051254,11.238293 
	C112.273010,11.184430 112.550766,11.343611 112.789474,11.765571 
z"/>
<path fill="#FDC8C1" opacity="1.000000" stroke="none" 
	d="
M111.113670,16.213387 
	C111.346893,16.030664 111.543129,16.096502 111.987953,16.351101 
	C111.849915,16.513889 111.463295,16.487917 111.113670,16.213387 
z"/>
</svg>